<?xml version="1.0" encoding="UTF-8" standalone="yes"?>
<svg xmlns="http://www.w3.org/2000/svg" xmlns:xlink="http://www.w3.org/1999/xlink" viewBox="0 0 64 64" version="1.1" width="64" height="64" fill="#000000">
  <g id="surface1">
    <path style=" " d="M 7 8 C 5.347656 8 4 9.347656 4 11 L 4 53 C 4 54.652344 5.347656 56 7 56 L 57 56 C 58.652344 56 60 54.652344 60 53 L 60 11 C 60 9.347656 58.652344 8 57 8 Z M 7 10 L 57 10 C 57.550781 10 58 10.449219 58 11 L 58 53 C 58 53.550781 57.550781 54 57 54 L 7 54 C 6.449219 54 6 53.550781 6 53 L 6 20 L 47 20 C 47.554688 20 48 19.554688 48 19 C 48 18.445313 47.554688 18 47 18 L 6 18 L 6 11 C 6 10.449219 6.449219 10 7 10 Z M 10 12 C 9.445313 12 9 12.445313 9 13 L 9 15 C 9 15.554688 9.445313 16 10 16 C 10.554688 16 11 15.554688 11 15 L 11 13 C 11 12.445313 10.554688 12 10 12 Z M 15 12 C 14.445313 12 14 12.445313 14 13 L 14 15 C 14 15.554688 14.445313 16 15 16 C 15.554688 16 16 15.554688 16 15 L 16 13 C 16 12.445313 15.554688 12 15 12 Z M 20 12 C 19.445313 12 19 12.445313 19 13 L 19 15 C 19 15.554688 19.445313 16 20 16 C 20.554688 16 21 15.554688 21 15 L 21 13 C 21 12.445313 20.554688 12 20 12 Z M 25 12 C 24.445313 12 24 12.445313 24 13 L 24 15 C 24 15.554688 24.445313 16 25 16 C 25.554688 16 26 15.554688 26 15 L 26 13 C 26 12.445313 25.554688 12 25 12 Z M 30 12 C 29.445313 12 29 12.445313 29 13 L 29 15 C 29 15.554688 29.445313 16 30 16 C 30.554688 16 31 15.554688 31 15 L 31 13 C 31 12.445313 30.554688 12 30 12 Z M 35 12 C 34.445313 12 34 12.445313 34 13 L 34 15 C 34 15.554688 34.445313 16 35 16 C 35.554688 16 36 15.554688 36 15 L 36 13 C 36 12.445313 35.554688 12 35 12 Z M 40 12 C 39.445313 12 39 12.445313 39 13 L 39 15 C 39 15.554688 39.445313 16 40 16 C 40.554688 16 41 15.554688 41 15 L 41 13 C 41 12.445313 40.554688 12 40 12 Z M 45 12 C 44.445313 12 44 12.445313 44 13 L 44 15 C 44 15.554688 44.445313 16 45 16 C 45.554688 16 46 15.554688 46 15 L 46 13 C 46 12.445313 45.554688 12 45 12 Z M 50 12 C 49.445313 12 49 12.445313 49 13 L 49 15 C 49 15.554688 49.445313 16 50 16 C 50.554688 16 51 15.554688 51 15 L 51 13 C 51 12.445313 50.554688 12 50 12 Z M 55 12 C 54.445313 12 54 12.445313 54 13 L 54 15 C 54 15.554688 54.445313 16 55 16 C 55.554688 16 56 15.554688 56 15 L 56 13 C 56 12.445313 55.554688 12 55 12 Z M 51 18 C 50.445313 18 50 18.445313 50 19 C 50 19.554688 50.445313 20 51 20 L 55 20 C 55.554688 20 56 19.554688 56 19 C 56 18.445313 55.554688 18 55 18 Z M 16 28 C 13.792969 28 12 29.792969 12 32 L 12 34 C 12 36.207031 13.792969 38 16 38 L 18 38 C 19.101563 38 20 38.898438 20 40 L 20 42 C 20 43.101563 19.101563 44 18 44 L 16 44 C 14.898438 44 14 43.101563 14 42 L 14 41 C 14 40.445313 13.554688 40 13 40 C 12.445313 40 12 40.445313 12 41 L 12 42 C 12 44.207031 13.792969 46 16 46 L 18 46 C 20.207031 46 22 44.207031 22 42 L 22 40 C 22 37.792969 20.207031 36 18 36 L 16 36 C 14.898438 36 14 35.101563 14 34 L 14 32 C 14 30.898438 14.898438 30 16 30 L 18 30 C 19.101563 30 20 30.898438 20 32 L 20 33 C 20 33.554688 20.445313 34 21 34 C 21.554688 34 22 33.554688 22 33 L 22 32 C 22 29.792969 20.207031 28 18 28 Z M 30 28 C 27.792969 28 26 29.792969 26 32 L 26 34 C 26 36.207031 27.792969 38 30 38 L 32 38 C 33.101563 38 34 38.898438 34 40 L 34 42 C 34 43.101563 33.101563 44 32 44 L 30 44 C 28.898438 44 28 43.101563 28 42 L 28 41 C 28 40.445313 27.554688 40 27 40 C 26.445313 40 26 40.445313 26 41 L 26 42 C 26 44.207031 27.792969 46 30 46 L 32 46 C 34.207031 46 36 44.207031 36 42 L 36 40 C 36 37.792969 34.207031 36 32 36 L 30 36 C 28.898438 36 28 35.101563 28 34 L 28 32 C 28 30.898438 28.898438 30 30 30 L 32 30 C 33.101563 30 34 30.898438 34 32 L 34 33 C 34 33.554688 34.445313 34 35 34 C 35.554688 34 36 33.554688 36 33 L 36 32 C 36 29.792969 34.207031 28 32 28 Z M 41 28 C 40.445313 28 40 28.445313 40 29 L 40 45 C 40 45.554688 40.445313 46 41 46 C 41.554688 46 42 45.554688 42 45 L 42 38 L 48 38 L 48 45 C 48 45.554688 48.445313 46 49 46 C 49.554688 46 50 45.554688 50 45 L 50 29 C 50 28.445313 49.554688 28 49 28 C 48.445313 28 48 28.445313 48 29 L 48 36 L 42 36 L 42 29 C 42 28.445313 41.554688 28 41 28 Z "/>
  </g>
</svg>
