<?xml version="1.0" encoding="UTF-8" standalone="yes"?>
<svg xmlns="http://www.w3.org/2000/svg" viewBox="0 0 80 80" width="80" height="80" fill="#000000">
  <path d="M 9 16 C 7.9393434 16 6.9214145 16.421002 6.171875 17.171875 C 5.4239758 17.921105 5 18.938506 5 20 L 5 60 C 5 61.060657 5.4210018 62.078585 6.171875 62.828125 C 6.921105 63.576024 7.9385059 64 9 64 L 71 64 C 72.060657 64 73.078585 63.578998 73.828125 62.828125 C 74.576024 62.078895 75 61.061494 75 60 L 75 20 C 75 18.939343 74.578998 17.921415 73.828125 17.171875 C 73.078895 16.423976 72.061494 16 71 16 L 9 16 z M 9 18 L 71 18 C 71.530506 18 72.037292 18.209837 72.414062 18.585938 C 72.789189 18.960398 73 19.468657 73 20 L 73 60 C 73 60.530506 72.790165 61.037292 72.414062 61.414062 C 72.039603 61.789189 71.531343 62 71 62 L 9 62 C 8.4694941 62 7.9627075 61.790163 7.5859375 61.414062 C 7.2108107 61.039603 7 60.531343 7 60 L 7 20 C 7 19.469494 7.2098367 18.962708 7.5859375 18.585938 C 7.960398 18.210811 8.4686566 18 9 18 z M 12 20 A 1 1 0 0 0 11 21 A 1 1 0 0 0 12 22 A 1 1 0 0 0 13 21 A 1 1 0 0 0 12 20 z M 16 20 A 1 1 0 0 0 15 21 A 1 1 0 0 0 16 22 A 1 1 0 0 0 17 21 A 1 1 0 0 0 16 20 z M 20 20 A 1 1 0 0 0 19 21 A 1 1 0 0 0 20 22 A 1 1 0 0 0 21 21 A 1 1 0 0 0 20 20 z M 24 20 A 1 1 0 0 0 23 21 A 1 1 0 0 0 24 22 A 1 1 0 0 0 25 21 A 1 1 0 0 0 24 20 z M 28 20 A 1 1 0 0 0 27 21 A 1 1 0 0 0 28 22 A 1 1 0 0 0 29 21 A 1 1 0 0 0 28 20 z M 32 20 A 1 1 0 0 0 31 21 A 1 1 0 0 0 32 22 A 1 1 0 0 0 33 21 A 1 1 0 0 0 32 20 z M 36 20 A 1 1 0 0 0 35 21 A 1 1 0 0 0 36 22 A 1 1 0 0 0 37 21 A 1 1 0 0 0 36 20 z M 40 20 A 1 1 0 0 0 39 21 A 1 1 0 0 0 40 22 A 1 1 0 0 0 41 21 A 1 1 0 0 0 40 20 z M 44 20 A 1 1 0 0 0 43 21 A 1 1 0 0 0 44 22 A 1 1 0 0 0 45 21 A 1 1 0 0 0 44 20 z M 48 20 A 1 1 0 0 0 47 21 A 1 1 0 0 0 48 22 A 1 1 0 0 0 49 21 A 1 1 0 0 0 48 20 z M 52 20 A 1 1 0 0 0 51 21 A 1 1 0 0 0 52 22 A 1 1 0 0 0 53 21 A 1 1 0 0 0 52 20 z M 56 20 A 1 1 0 0 0 55 21 A 1 1 0 0 0 56 22 A 1 1 0 0 0 57 21 A 1 1 0 0 0 56 20 z M 60 20 A 1 1 0 0 0 59 21 A 1 1 0 0 0 60 22 A 1 1 0 0 0 61 21 A 1 1 0 0 0 60 20 z M 64 20 A 1 1 0 0 0 63 21 A 1 1 0 0 0 64 22 A 1 1 0 0 0 65 21 A 1 1 0 0 0 64 20 z M 68 20 A 1 1 0 0 0 67 21 A 1 1 0 0 0 68 22 A 1 1 0 0 0 69 21 A 1 1 0 0 0 68 20 z M 51.984375 31.986328 A 1.0001 1.0001 0 0 0 51.839844 32 L 50 32 A 1.0001 1.0001 0 1 0 50 34 L 51 34 L 51 46 L 50 46 A 1.0001 1.0001 0 1 0 50 48 L 51.832031 48 A 1.0001 1.0001 0 0 0 52.158203 48 L 54 48 A 1.0001 1.0001 0 1 0 54 46 L 53 46 L 53 34 L 54 34 A 1.0001 1.0001 0 1 0 54 32 L 52.154297 32 A 1.0001 1.0001 0 0 0 51.984375 31.986328 z M 28.986328 32 A 1.0001 1.0001 0 0 0 28.039062 32.720703 L 24.039062 46.466797 A 1.0001 1.0001 0 0 0 24 46.746094 L 24 47 A 1.0001 1.0001 0 1 0 26 47 L 26 46.888672 L 26.839844 44 L 31.160156 44 L 32 46.888672 L 32 47 A 1.0001 1.0001 0 1 0 34 47 L 34 46.746094 A 1.0001 1.0001 0 0 0 33.960938 46.466797 L 29.960938 32.720703 A 1.0001 1.0001 0 0 0 28.986328 32 z M 38 32 A 1.0001 1.0001 0 0 0 37 33 L 37 41.832031 A 1.0001 1.0001 0 0 0 37 42.158203 L 37 47 A 1.0001 1.0001 0 1 0 39 47 L 39 43 L 42 43 C 44.197334 43 46 41.197334 46 39 L 46 36 C 46 33.802666 44.197334 32 42 32 L 38 32 z M 39 34 L 42 34 C 43.116666 34 44 34.883334 44 36 L 44 39 C 44 40.116666 43.116666 41 42 41 L 39 41 L 39 34 z M 29 36.580078 L 30.578125 42 L 27.421875 42 L 29 36.580078 z M 12 58 A 1 1 0 0 0 11 59 A 1 1 0 0 0 12 60 A 1 1 0 0 0 13 59 A 1 1 0 0 0 12 58 z M 16 58 A 1 1 0 0 0 15 59 A 1 1 0 0 0 16 60 A 1 1 0 0 0 17 59 A 1 1 0 0 0 16 58 z M 20 58 A 1 1 0 0 0 19 59 A 1 1 0 0 0 20 60 A 1 1 0 0 0 21 59 A 1 1 0 0 0 20 58 z M 24 58 A 1 1 0 0 0 23 59 A 1 1 0 0 0 24 60 A 1 1 0 0 0 25 59 A 1 1 0 0 0 24 58 z M 28 58 A 1 1 0 0 0 27 59 A 1 1 0 0 0 28 60 A 1 1 0 0 0 29 59 A 1 1 0 0 0 28 58 z M 32 58 A 1 1 0 0 0 31 59 A 1 1 0 0 0 32 60 A 1 1 0 0 0 33 59 A 1 1 0 0 0 32 58 z M 36 58 A 1 1 0 0 0 35 59 A 1 1 0 0 0 36 60 A 1 1 0 0 0 37 59 A 1 1 0 0 0 36 58 z M 40 58 A 1 1 0 0 0 39 59 A 1 1 0 0 0 40 60 A 1 1 0 0 0 41 59 A 1 1 0 0 0 40 58 z M 44 58 A 1 1 0 0 0 43 59 A 1 1 0 0 0 44 60 A 1 1 0 0 0 45 59 A 1 1 0 0 0 44 58 z M 48 58 A 1 1 0 0 0 47 59 A 1 1 0 0 0 48 60 A 1 1 0 0 0 49 59 A 1 1 0 0 0 48 58 z M 52 58 A 1 1 0 0 0 51 59 A 1 1 0 0 0 52 60 A 1 1 0 0 0 53 59 A 1 1 0 0 0 52 58 z M 56 58 A 1 1 0 0 0 55 59 A 1 1 0 0 0 56 60 A 1 1 0 0 0 57 59 A 1 1 0 0 0 56 58 z M 60 58 A 1 1 0 0 0 59 59 A 1 1 0 0 0 60 60 A 1 1 0 0 0 61 59 A 1 1 0 0 0 60 58 z M 64 58 A 1 1 0 0 0 63 59 A 1 1 0 0 0 64 60 A 1 1 0 0 0 65 59 A 1 1 0 0 0 64 58 z M 68 58 A 1 1 0 0 0 67 59 A 1 1 0 0 0 68 60 A 1 1 0 0 0 69 59 A 1 1 0 0 0 68 58 z"/>
</svg>
